<svg width="30" height="30" viewBox="0 0 30 30" fill="none" xmlns="http://www.w3.org/2000/svg">
<path d="M15 26.2041C13.5764 26.2041 12.2429 25.9383 10.9997 25.4069C9.75637 24.8754 8.66968 24.1446 7.73958 23.2145C6.80949 22.2844 6.0787 21.1977 5.54722 19.9544C5.01574 18.7111 4.75 17.3777 4.75 15.9541C4.75 14.5305 5.01574 13.197 5.54722 11.9537C6.0787 10.7105 6.80949 9.62377 7.73958 8.69367C8.66968 7.76358 9.75637 7.03279 10.9997 6.50131C12.2429 5.96983 13.5764 5.70409 15 5.70409H15.6549L14.0319 4.08117C13.8801 3.92932 13.8042 3.73476 13.8042 3.49749C13.8042 3.26022 13.8768 3.06566 14.022 2.91381C14.1805 2.76196 14.3736 2.68129 14.6014 2.6718C14.8292 2.66231 15.019 2.73349 15.1708 2.88534L18.1889 5.90339C18.3597 6.07423 18.4451 6.27353 18.4451 6.50131C18.4451 6.72909 18.3597 6.92839 18.1889 7.09923L15.1993 10.0888C15.0285 10.2596 14.8292 10.3451 14.6014 10.3451C14.3736 10.3451 14.1706 10.2596 13.9923 10.0888C13.8289 9.91798 13.7472 9.71867 13.7472 9.49089C13.7472 9.26312 13.8326 9.06381 14.0035 8.89298L15.484 7.41242H14.8576C12.485 7.41242 10.4919 8.24116 8.87847 9.89864C7.26505 11.5561 6.45833 13.5746 6.45833 15.9541C6.45833 18.3336 7.28707 20.352 8.94456 22.0095C10.6021 23.667 12.6205 24.4958 15 24.4958C17.3795 24.4958 19.3979 23.667 21.0554 22.0095C22.7129 20.352 23.5417 18.3336 23.5417 15.9541C23.5417 15.7121 23.624 15.5092 23.7887 15.3455C23.9533 15.1818 24.1574 15.0999 24.4008 15.0999C24.6443 15.0999 24.8466 15.1818 25.008 15.3455C25.1693 15.5092 25.25 15.7121 25.25 15.9541C25.25 17.3777 24.9843 18.7111 24.4528 19.9544C23.9213 21.1977 23.1905 22.2844 22.2604 23.2145C21.3303 24.1446 20.2436 24.8754 19.0003 25.4069C17.7571 25.9383 16.4236 26.2041 15 26.2041ZM11.5833 13.6194H10.7292C10.5318 13.6194 10.3685 13.5518 10.2394 13.4168C10.1104 13.2817 10.0458 13.1108 10.0458 12.9043C10.0458 12.6977 10.1131 12.5327 10.2475 12.4093C10.382 12.2859 10.552 12.2242 10.7576 12.2242H12.3236C12.5324 12.2242 12.6985 12.2859 12.8219 12.4093C12.9453 12.5327 13.0069 12.6988 13.0069 12.9076V18.9437C13.0069 19.1493 12.9394 19.3193 12.8043 19.4538C12.6692 19.5883 12.4984 19.6555 12.2918 19.6555C12.0852 19.6555 11.9155 19.5883 11.7826 19.4538C11.6498 19.3193 11.5833 19.1493 11.5833 18.9437V13.6194ZM15.7688 19.6555C15.4138 19.6555 15.1163 19.5354 14.8761 19.2953C14.636 19.0552 14.516 18.7577 14.516 18.4027V13.477C14.516 13.1221 14.636 12.8245 14.8761 12.5844C15.1163 12.3443 15.4138 12.2242 15.7688 12.2242H18.1319C18.4869 12.2242 18.7844 12.3443 19.0245 12.5844C19.2647 12.8245 19.3847 13.1221 19.3847 13.477V18.4027C19.3847 18.7577 19.2647 19.0552 19.0245 19.2953C18.7844 19.5354 18.4869 19.6555 18.1319 19.6555H15.7688ZM15.9396 17.9319C15.9396 18.0976 16.0739 18.2319 16.2396 18.2319H17.6611C17.8268 18.2319 17.9611 18.0976 17.9611 17.9319V13.9194C17.9611 13.7537 17.8268 13.6194 17.6611 13.6194H16.2396C16.0739 13.6194 15.9396 13.7537 15.9396 13.9194V17.9319Z" fill="white"/>
</svg>
