<svg width="30" height="30" viewBox="0 0 30 30" fill="none" xmlns="http://www.w3.org/2000/svg">
<path d="M10.4062 19.5938H7.1875C6.92188 19.5938 6.69922 19.5034 6.51953 19.3227C6.33984 19.1419 6.25 18.9179 6.25 18.6508C6.25 18.3836 6.33984 18.1615 6.51953 17.9844C6.69922 17.8073 6.92188 17.7188 7.1875 17.7188H11.3438C11.6094 17.7188 11.832 17.8086 12.0117 17.9883C12.1914 18.168 12.2812 18.3906 12.2812 18.6562V22.8125C12.2812 23.0781 12.1909 23.3008 12.0102 23.4805C11.8294 23.6602 11.6054 23.75 11.3383 23.75C11.0711 23.75 10.849 23.6602 10.6719 23.4805C10.4948 23.3008 10.4062 23.0781 10.4062 22.8125V19.5938ZM19.5938 19.5938V22.8125C19.5938 23.0781 19.5034 23.3008 19.3227 23.4805C19.1419 23.6602 18.9179 23.75 18.6508 23.75C18.3836 23.75 18.1615 23.6602 17.9844 23.4805C17.8073 23.3008 17.7188 23.0781 17.7188 22.8125V18.6562C17.7188 18.3906 17.8086 18.168 17.9883 17.9883C18.168 17.8086 18.3906 17.7188 18.6562 17.7188H22.8125C23.0781 17.7188 23.3008 17.8091 23.4805 17.9898C23.6602 18.1706 23.75 18.3946 23.75 18.6617C23.75 18.9289 23.6602 19.151 23.4805 19.3281C23.3008 19.5052 23.0781 19.5938 22.8125 19.5938H19.5938ZM10.4062 10.4062V7.1875C10.4062 6.92188 10.4966 6.69922 10.6773 6.51953C10.8581 6.33984 11.0821 6.25 11.3492 6.25C11.6164 6.25 11.8385 6.33984 12.0156 6.51953C12.1927 6.69922 12.2812 6.92188 12.2812 7.1875V11.3438C12.2812 11.6094 12.1914 11.832 12.0117 12.0117C11.832 12.1914 11.6094 12.2812 11.3438 12.2812H7.1875C6.92188 12.2812 6.69922 12.1909 6.51953 12.0102C6.33984 11.8294 6.25 11.6054 6.25 11.3383C6.25 11.0711 6.33984 10.849 6.51953 10.6719C6.69922 10.4948 6.92188 10.4062 7.1875 10.4062H10.4062ZM19.5938 10.4062H22.8125C23.0781 10.4062 23.3008 10.4966 23.4805 10.6773C23.6602 10.8581 23.75 11.0821 23.75 11.3492C23.75 11.6164 23.6602 11.8385 23.4805 12.0156C23.3008 12.1927 23.0781 12.2812 22.8125 12.2812H18.6562C18.3906 12.2812 18.168 12.1914 17.9883 12.0117C17.8086 11.832 17.7188 11.6094 17.7188 11.3438V7.1875C17.7188 6.92188 17.8091 6.69922 17.9898 6.51953C18.1706 6.33984 18.3946 6.25 18.6617 6.25C18.9289 6.25 19.151 6.33984 19.3281 6.51953C19.5052 6.69922 19.5938 6.92188 19.5938 7.1875V10.4062Z" fill="white"/>
</svg>
