<svg width="30" height="30" viewBox="0 0 30 30" fill="none" xmlns="http://www.w3.org/2000/svg">
<path d="M19.2188 23.75C18.7031 23.75 18.2617 23.5664 17.8945 23.1992C17.5273 22.832 17.3438 22.3906 17.3438 21.875V8.125C17.3438 7.60938 17.5273 7.16797 17.8945 6.80078C18.2617 6.43359 18.7031 6.25 19.2188 6.25H20.9375C21.4531 6.25 21.8945 6.43359 22.2617 6.80078C22.6289 7.16797 22.8125 7.60938 22.8125 8.125V21.875C22.8125 22.3906 22.6289 22.832 22.2617 23.1992C21.8945 23.5664 21.4531 23.75 20.9375 23.75H19.2188ZM9.0625 23.75C8.54688 23.75 8.10547 23.5664 7.73828 23.1992C7.37109 22.832 7.1875 22.3906 7.1875 21.875V8.125C7.1875 7.60938 7.37109 7.16797 7.73828 6.80078C8.10547 6.43359 8.54688 6.25 9.0625 6.25H10.7812C11.2969 6.25 11.7383 6.43359 12.1055 6.80078C12.4727 7.16797 12.6562 7.60938 12.6562 8.125V21.875C12.6562 22.3906 12.4727 22.832 12.1055 23.1992C11.7383 23.5664 11.2969 23.75 10.7812 23.75H9.0625Z" fill="white"/>
</svg>
