<svg width="30" height="30" viewBox="0 0 30 30" fill="none" xmlns="http://www.w3.org/2000/svg">
<path d="M5.27392 13.56C5.04306 13.56 4.84954 13.4814 4.69336 13.3243C4.53719 13.1672 4.4591 12.9726 4.4591 12.7404C4.4591 12.5082 4.53719 12.3151 4.69336 12.1612C4.84954 12.0073 5.04306 11.9303 5.27392 11.9303H9.29367L4.43194 7.0686C4.26898 6.90442 4.1875 6.70947 4.1875 6.48375C4.1875 6.25801 4.26946 6.06366 4.43338 5.90069C4.59729 5.73773 4.79194 5.65625 5.01733 5.65625C5.24271 5.65625 5.43688 5.73773 5.59985 5.90069L10.4344 10.7624V6.76983C10.4344 6.53897 10.513 6.34545 10.67 6.18927C10.8271 6.0331 11.0218 5.95502 11.254 5.95502C11.4862 5.95502 11.6793 6.0331 11.8332 6.18927C11.9871 6.34545 12.064 6.53897 12.064 6.76983V12.7451C12.064 12.976 11.986 13.1695 11.8298 13.3257C11.6736 13.4819 11.4801 13.56 11.2492 13.56H5.27392ZM6.08873 23.3377C5.65417 23.3377 5.27392 23.1748 4.94799 22.8488C4.62207 22.5229 4.4591 22.1427 4.4591 21.7081V16.276C4.4591 16.0451 4.53764 15.8516 4.69472 15.6954C4.85182 15.5393 5.04647 15.4612 5.27867 15.4612C5.5109 15.4612 5.70396 15.5393 5.85787 15.6954C6.01178 15.8516 6.08873 16.0451 6.08873 16.276V21.7081H14.5085C14.7394 21.7081 14.9329 21.7866 15.089 21.9437C15.2452 22.1008 15.3233 22.2955 15.3233 22.5277C15.3233 22.7599 15.2452 22.953 15.089 23.1069C14.9329 23.2608 14.7394 23.3377 14.5085 23.3377H6.08873ZM25.3679 15.7328C25.1357 15.7328 24.9426 15.6547 24.7887 15.4985C24.6348 15.3424 24.5579 15.1488 24.5579 14.918V7.58465H14.7801C14.5492 7.58465 14.3557 7.50611 14.1995 7.34903C14.0434 7.19193 13.9653 6.99728 13.9653 6.76508C13.9653 6.53286 14.0434 6.33979 14.1995 6.18588C14.3557 6.03197 14.5492 5.95502 14.7801 5.95502H24.5579C24.9924 5.95502 25.3727 6.11798 25.6986 6.4439C26.0245 6.76983 26.1875 7.15008 26.1875 7.58465V14.918C26.1875 15.1488 26.109 15.3424 25.9519 15.4985C25.7948 15.6547 25.6001 15.7328 25.3679 15.7328ZM17.7677 23.3377C17.5369 23.3377 17.3434 23.2596 17.1872 23.1035C17.031 22.9473 16.9529 22.7538 16.9529 22.5229V18.1772C16.9529 17.9464 17.031 17.7529 17.1872 17.5967C17.3434 17.4405 17.5369 17.3624 17.7677 17.3624H25.3727C25.6035 17.3624 25.7971 17.4405 25.9532 17.5967C26.1094 17.7529 26.1875 17.9464 26.1875 18.1772V22.5229C26.1875 22.7538 26.1094 22.9473 25.9532 23.1035C25.7971 23.2596 25.6035 23.3377 25.3727 23.3377H17.7677Z" fill="white"/>
</svg>
