<svg width="30" height="30" viewBox="0 0 30 30" fill="none" xmlns="http://www.w3.org/2000/svg">
<path d="M7.80703 22.5C7.53984 22.5 7.31771 22.4102 7.14062 22.2305C6.96354 22.0508 6.875 21.8281 6.875 21.5625V8.4375C6.875 8.17188 6.96536 7.94922 7.14609 7.76953C7.32684 7.58984 7.5508 7.5 7.81797 7.5C8.08516 7.5 8.30729 7.58984 8.48438 7.76953C8.66146 7.94922 8.75 8.17188 8.75 8.4375V21.5625C8.75 21.8281 8.65964 22.0508 8.47891 22.2305C8.29816 22.4102 8.0742 22.5 7.80703 22.5ZM21.6562 21.4688L13.4375 15.7812C13.1458 15.5914 13 15.3304 13 14.9983C13 14.6661 13.1458 14.4062 13.4375 14.2188L21.6562 8.53125C21.9688 8.30208 22.2917 8.27671 22.625 8.45513C22.9583 8.63354 23.125 8.90892 23.125 9.28125V20.7188C23.125 21.0833 22.9583 21.3568 22.625 21.5391C22.2917 21.7214 21.9688 21.6979 21.6562 21.4688Z" fill="white"/>
</svg>
