<svg width="30" height="30" viewBox="0 0 30 30" fill="none" xmlns="http://www.w3.org/2000/svg">
<path d="M22.182 22.5C21.9148 22.5 21.6927 22.4102 21.5156 22.2305C21.3385 22.0508 21.25 21.8281 21.25 21.5625V8.4375C21.25 8.17188 21.3404 7.94922 21.5211 7.76953C21.7018 7.58984 21.9258 7.5 22.193 7.5C22.4602 7.5 22.6823 7.58984 22.8594 7.76953C23.0365 7.94922 23.125 8.17188 23.125 8.4375V21.5625C23.125 21.8281 23.0346 22.0508 22.8539 22.2305C22.6732 22.4102 22.4492 22.5 22.182 22.5ZM8.34375 21.4688C8.03125 21.6979 7.70833 21.7214 7.375 21.5391C7.04167 21.3568 6.875 21.0833 6.875 20.7188V9.28125C6.875 8.90892 7.04167 8.63354 7.375 8.45513C7.70833 8.27671 8.03125 8.30208 8.34375 8.53125L16.5625 14.2188C16.8542 14.4086 17 14.6696 17 15.0017C17 15.3339 16.8542 15.5938 16.5625 15.7812L8.34375 21.4688Z" fill="white"/>
</svg>
