<svg width="30" height="30" viewBox="0 0 30 30" fill="none" xmlns="http://www.w3.org/2000/svg">
<path d="M5.225 24.4C4.765 24.4 4.3625 24.2275 4.0175 23.8825C3.6725 23.5375 3.5 23.135 3.5 22.675V7.725C3.5 7.265 3.6725 6.8625 4.0175 6.5175C4.3625 6.1725 4.765 6 5.225 6H24.775C25.235 6 25.6375 6.1725 25.9825 6.5175C26.3275 6.8625 26.5 7.265 26.5 7.725V22.675C26.5 23.135 26.3275 23.5375 25.9825 23.8825C25.6375 24.2275 25.235 24.4 24.775 24.4H5.225ZM8.9625 18.9375H17.5875C17.8319 18.9375 18.0367 18.8544 18.202 18.6881C18.3673 18.5218 18.45 18.3158 18.45 18.07C18.45 17.8242 18.3673 17.6198 18.202 17.4569C18.0367 17.294 17.8319 17.2125 17.5875 17.2125H8.9625C8.71812 17.2125 8.51328 17.2956 8.34797 17.4619C8.18266 17.6282 8.1 17.8342 8.1 18.08C8.1 18.3258 8.18266 18.5302 8.34797 18.6931C8.51328 18.856 8.71812 18.9375 8.9625 18.9375ZM12.4125 15.4875H21.0375C21.2819 15.4875 21.4867 15.4044 21.652 15.2381C21.8173 15.0718 21.9 14.8658 21.9 14.62C21.9 14.3742 21.8173 14.1698 21.652 14.0069C21.4867 13.844 21.2819 13.7625 21.0375 13.7625H12.4125C12.1681 13.7625 11.9633 13.8456 11.798 14.0119C11.6327 14.1782 11.55 14.3842 11.55 14.63C11.55 14.8758 11.6327 15.0802 11.798 15.2431C11.9633 15.406 12.1681 15.4875 12.4125 15.4875ZM8.96753 15.4875C9.21334 15.4875 9.41771 15.4044 9.58063 15.2381C9.74354 15.0718 9.825 14.8658 9.825 14.62C9.825 14.3742 9.74187 14.1698 9.57559 14.0069C9.4093 13.844 9.20326 13.7625 8.95747 13.7625C8.71166 13.7625 8.50729 13.8456 8.34438 14.0119C8.18146 14.1782 8.1 14.3842 8.1 14.63C8.1 14.8758 8.18314 15.0802 8.34941 15.2431C8.5157 15.406 8.72174 15.4875 8.96753 15.4875ZM21.0425 18.9375C21.2883 18.9375 21.4927 18.8544 21.6556 18.6881C21.8185 18.5218 21.9 18.3158 21.9 18.07C21.9 17.8242 21.8169 17.6198 21.6506 17.4569C21.4843 17.294 21.2783 17.2125 21.0325 17.2125C20.7867 17.2125 20.5823 17.2956 20.4194 17.4619C20.2565 17.6282 20.175 17.8342 20.175 18.08C20.175 18.3258 20.2581 18.5302 20.4244 18.6931C20.5907 18.856 20.7967 18.9375 21.0425 18.9375Z" fill="white"/>
</svg>
