<svg width="30" height="30" viewBox="0 0 30 30" fill="none" xmlns="http://www.w3.org/2000/svg">
<path d="M11.25 18.75H7.1875C6.91667 18.75 6.69271 18.6614 6.51562 18.4843C6.33854 18.3073 6.25 18.0833 6.25 17.8125V12.1875C6.25 11.9166 6.33854 11.6927 6.51562 11.5156C6.69271 11.3385 6.91667 11.25 7.1875 11.25H11.25L15.9062 6.59372C16.1979 6.30205 16.5365 6.23435 16.9219 6.3906C17.3073 6.54685 17.5 6.83331 17.5 7.24997V22.75C17.5 23.1666 17.3073 23.4531 16.9219 23.6093C16.5365 23.7656 16.1979 23.6979 15.9062 23.4062L11.25 18.75ZM23.125 15C23.125 16.0833 22.8542 17.0625 22.3125 17.9375C21.7708 18.8125 21.0104 19.4791 20.0312 19.9375C19.8646 20.0208 19.7135 20.0104 19.5781 19.9062C19.4427 19.8021 19.375 19.6666 19.375 19.5V10.4687C19.375 10.3021 19.4427 10.1666 19.5781 10.0625C19.7135 9.9583 19.8646 9.94789 20.0312 10.0312C21.0104 10.4896 21.7708 11.1666 22.3125 12.0625C22.8542 12.9583 23.125 13.9375 23.125 15Z" fill="white"/>
</svg>
